<?xml version="1.0" standalone="no"?><!DOCTYPE svg PUBLIC "-//W3C//DTD SVG 1.1//EN" "http://www.w3.org/Graphics/SVG/1.1/DTD/svg11.dtd"><svg t="1660141587170" class="icon" viewBox="0 0 1133 1024" version="1.1" xmlns="http://www.w3.org/2000/svg" p-id="6733" xmlns:xlink="http://www.w3.org/1999/xlink" width="221.2890625" height="200"><defs><style type="text/css">@font-face { font-family: feedback-iconfont; src: url("//at.alicdn.com/t/font_1031158_u69w8yhxdu.woff2?t=1630033759944") format("woff2"), url("//at.alicdn.com/t/font_1031158_u69w8yhxdu.woff?t=1630033759944") format("woff"), url("//at.alicdn.com/t/font_1031158_u69w8yhxdu.ttf?t=1630033759944") format("truetype"); }
</style></defs><path d="M563.2 810.666667s80.213333-249.173333-64-452.266667S126.293333 72.533333 126.293333 72.533333s205.653333 203.946667 304.64 373.76C529.92 616.96 474.453333 810.666667 474.453333 810.666667" fill="#66B28A" p-id="6734"></path><path d="M562.346667 809.813333c5.12-18.773333 9.386667-38.4 12.8-58.026666 1.706667-9.386667 2.56-19.626667 4.266666-29.013334 0.853333-9.386667 1.706667-19.626667 2.56-29.013333l0.853334-29.866667v-29.866666c0-10.24-0.853333-19.626667-1.706667-29.013334l-0.853333-14.506666-1.706667-14.506667c-1.706667-9.386667-2.56-19.626667-4.266667-29.013333l-5.973333-29.013334c-2.56-9.386667-5.12-18.773333-8.533333-28.16l-4.266667-13.653333-5.12-13.653333c-3.413333-9.386667-6.826667-17.92-11.093333-27.306667l-14.506667-25.6c-4.266667-8.533333-9.386667-17.066667-14.506667-24.746667-5.12-7.68-10.24-16.213333-16.213333-24.746666l-17.92-23.04-9.386667-11.946667-9.386666-11.093333-19.626667-22.186667-20.48-20.48-10.24-10.24-11.093333-10.24c-7.68-6.826667-14.506667-13.653333-22.186667-19.626667-15.36-12.8-29.866667-24.746667-46.08-36.693333-7.68-5.973333-15.36-11.946667-23.893333-17.066667-8.533333-5.12-16.213333-11.093333-24.746667-16.213333l-24.746667-15.36-25.6-14.506667-25.6-13.653333c-8.533333-4.266667-17.066667-8.533333-26.453333-12.8-17.92-8.533333-35.84-16.213333-53.76-23.04l9.386667-14.506667a3223.825067 3223.825067 0 0 1 147.626666 157.866667c11.946667 13.653333 23.04 27.306667 34.986667 40.96 11.946667 13.653333 22.186667 28.16 33.28 41.813333 11.093333 14.506667 22.186667 29.013333 32.426667 43.52l15.36 22.186667c5.12 7.68 10.24 15.36 14.506666 23.04 10.24 15.36 18.773333 30.72 28.16 46.08 8.533333 17.066667 17.066667 31.573333 23.04 49.493333 7.68 17.066667 11.946667 34.986667 17.92 52.053334l5.973334 26.453333c1.706667 8.533333 2.56 17.92 4.266666 27.306667 1.706667 8.533333 1.706667 17.92 2.56 27.306666l0.853334 13.653334 0.853333 13.653333c0 9.386667 0.853333 17.92 0 27.306667 0 9.386667 0 17.92-0.853333 27.306666s-1.706667 17.92-2.56 27.306667c-0.853333 9.386667-2.56 17.92-3.413334 26.453333-3.413333 17.92-6.826667 34.986667-11.946666 52.906667 0 0.853333-0.853333 0.853333-1.706667 0.853333s-0.853333-0.853333-0.853333-0.853333c3.413333-17.066667 5.973333-34.986667 8.533333-52.906667 0.853333-8.533333 1.706667-17.92 1.706667-26.453333 0.853333-8.533333 0.853333-17.92 0.853333-26.453333v-26.453334c0-8.533333-0.853333-17.92-1.706667-26.453333l-0.853333-13.653333-1.706667-12.8c-0.853333-8.533333-1.706667-17.92-4.266666-26.453334l-5.12-25.6-6.826667-25.6c-5.12-16.213333-10.24-33.28-17.92-49.493333-5.973333-15.36-16.213333-32.426667-23.893333-46.933333-9.386667-14.506667-18.773333-29.866667-29.013334-44.373334L361.813333 366.933333c-10.24-14.506667-21.333333-28.16-32.426666-42.666666-11.093333-13.653333-22.186667-28.16-33.28-41.813334-11.093333-13.653333-22.186667-27.306667-34.133334-40.96-46.08-54.613333-93.866667-107.52-143.36-158.72l-27.306666-34.133333 38.4 15.36c18.773333 7.68 36.693333 16.213333 54.613333 24.746667 8.533333 4.266667 17.92 9.386667 26.453333 13.653333l26.453334 14.506667 25.6 15.36 24.746666 16.213333c8.533333 5.12 16.213333 11.093333 24.746667 17.066667s16.213333 11.946667 23.893333 17.92c16.213333 11.946667 30.72 24.746667 46.08 37.546666 7.68 6.826667 14.506667 13.653333 22.186667 20.48l11.093333 10.24 10.24 11.093334 20.48 21.333333 19.626667 23.04 9.386667 11.093333 8.533333 11.946667 17.92 23.893333c5.973333 8.533333 11.093333 17.066667 16.213333 25.6 5.12 8.533333 11.093333 17.066667 14.506667 25.6l12.8 27.306667c4.266667 9.386667 6.826667 18.773333 11.093333 28.16l5.12 13.653333 4.266667 14.506667c2.56 9.386667 5.973333 18.773333 7.68 29.013333l5.973333 29.013334c2.56 9.386667 2.56 19.626667 4.266667 29.866666l1.706667 14.506667 0.853333 14.506667c0 10.24 1.706667 19.626667 0.853333 29.866666V665.6l-1.706666 29.866667c-0.853333 10.24-1.706667 19.626667-3.413334 29.866666-1.706667 9.386667-2.56 19.626667-4.266666 29.013334-3.413333 19.626667-7.68 38.4-13.653334 58.026666 0 0.853333-0.853333 0.853333-1.706666 0.853334v-3.413334z" fill="#545971" p-id="6735"></path><path d="M225.28 954.88s34.986667-108.373333-27.306667-196.266667C134.826667 669.866667 34.986667 633.173333 34.986667 633.173333s89.6 88.746667 132.266666 162.986667c42.666667 74.24 18.773333 158.72 18.773334 158.72" fill="#66B28A" p-id="6736"></path><path d="M223.573333 954.026667c4.266667-16.213333 6.826667-33.28 7.68-50.346667 0-8.533333 0.853333-17.066667 0-25.6 0-4.266667-0.853333-8.533333-0.853333-12.8s-0.853333-8.533333-1.706667-12.8c-0.853333-8.533333-3.413333-17.066667-5.12-24.746667-0.853333-4.266667-2.56-7.68-3.413333-11.946666-0.853333-4.266667-2.56-7.68-4.266667-11.946667-1.706667-4.266667-3.413333-7.68-5.12-11.946667l-5.12-10.24c-1.706667-3.413333-4.266667-6.826667-6.826666-11.093333-2.56-3.413333-4.266667-6.826667-6.826667-10.24-5.12-6.826667-10.24-13.653333-16.213333-19.626667l-8.533334-9.386666-9.386666-8.533334c-5.973333-5.973333-12.8-11.093333-18.773334-17.066666-6.826667-5.12-12.8-10.24-19.626666-15.36-6.826667-5.12-13.653333-9.386667-20.48-14.506667-6.826667-4.266667-14.506667-8.533333-21.333334-12.8-7.68-4.266667-14.506667-7.68-22.186666-11.093333-7.68-3.413333-15.36-6.826667-23.04-9.386667l9.386666-14.506667 33.28 33.28c11.093333 11.093333 21.333333 23.04 31.573334 34.986667l15.36 17.92c5.12 5.973333 10.24 11.946667 14.506666 18.773333 5.12 5.973333 9.386667 12.8 13.653334 18.773334 4.266667 6.826667 9.386667 12.8 12.8 19.626666 4.266667 6.826667 8.533333 13.653333 11.946666 20.48 3.413333 7.68 6.826667 13.653333 10.24 22.186667 3.413333 7.68 5.12 15.36 7.68 23.893333 1.706667 7.68 3.413333 16.213333 4.266667 23.893334 0.853333 7.68 1.706667 16.213333 1.706667 23.893333 0 7.68 0 16.213333-0.853334 23.893333-0.853333 7.68-2.56 15.36-3.413333 23.893334-1.706667 7.68-3.413333 15.36-5.973333 23.04 0 0.853333-0.853333 0.853333-1.706667 0.853333s-0.853333-0.853333-0.853333-0.853333c2.56-15.36 3.413333-30.72 2.56-46.08 0-7.68-0.853333-15.36-1.706667-23.04 0-3.413333-0.853333-7.68-1.706667-11.093334s-0.853333-7.68-1.706666-11.093333c-1.706667-7.68-3.413333-14.506667-5.973334-21.333333-2.56-6.826667-5.12-14.506667-7.68-20.48-2.56-5.973333-6.826667-13.653333-10.24-19.626667-4.266667-5.973333-7.68-12.8-12.8-18.773333-8.533333-12.8-17.92-24.746667-27.306666-36.693334s-18.773333-23.893333-29.013334-35.84C70.826667 688.64 50.346667 665.6 29.013333 643.413333l-29.013333-29.866666 38.4 15.36c8.533333 3.413333 16.213333 6.826667 23.893333 11.093333 7.68 0 15.36 4.266667 23.04 8.533333 7.68 4.266667 14.506667 9.386667 22.186667 14.506667 6.826667 5.12 14.506667 10.24 21.333333 15.36 6.826667 5.12 13.653333 11.093333 20.48 17.066667 5.973333 5.973333 12.8 11.946667 18.773334 17.92l9.386666 9.386666 8.533334 10.24c5.973333 6.826667 10.24 13.653333 15.36 20.48 2.56 4.266667 5.12 7.68 6.826666 11.093334 2.56 3.413333 4.266667 7.68 5.973334 11.946666l5.973333 11.946667c1.706667 4.266667 3.413333 8.533333 4.266667 11.946667 1.706667 4.266667 2.56 8.533333 4.266666 12.8 0.853333 4.266667 2.56 8.533333 3.413334 12.8 1.706667 8.533333 3.413333 17.066667 4.266666 25.6 0.853333 4.266667 0.853333 8.533333 0.853334 12.8s0.853333 8.533333 0 12.8c0 8.533333-0.853333 17.066667-0.853334 25.6-1.706667 17.066667-5.12 34.133333-10.24 51.2 0 0.853333-0.853333 0.853333-1.706666 0.853333 0 0.853333-0.853333 0-0.853334-0.853333z" fill="#545971" p-id="6737"></path><path d="M397.653333 956.586667s76.8-311.466667-33.28-464.213334C253.44 339.626667 45.226667 393.386667 45.226667 393.386667s80.213333 43.52 197.973333 198.826666c117.76 155.306667 48.64 364.373333 48.64 364.373334" fill="#66B28A" p-id="6738"></path><path d="M396.8 956.586667c7.68-34.133333 12.8-68.266667 17.066667-102.4s5.973333-69.12 6.826666-103.253334c0-17.066667 0-34.133333-0.853333-52.053333-0.853333-17.066667-2.56-34.133333-5.12-51.2s-5.973333-34.133333-10.24-50.346667c-4.266667-16.213333-9.386667-33.28-16.213333-48.64-3.413333-7.68-6.826667-15.36-11.093334-23.04-4.266667-7.68-8.533333-14.506667-12.8-21.333333-2.56-3.413333-4.266667-6.826667-6.826666-10.24l-7.68-10.24c-5.973333-5.973333-11.093333-12.8-17.066667-17.92-23.893333-23.893333-53.76-41.813333-85.333333-52.906667-31.573333-11.946667-65.706667-17.92-98.986667-18.773333-17.066667-0.853333-34.133333 0-51.2 1.706667s-34.133333 4.266667-49.493333 7.68l2.56-17.066667C63.146667 392.533333 74.24 401.066667 85.333333 409.6c11.093333 8.533333 22.186667 17.92 32.426667 27.306667 10.24 9.386667 20.48 18.773333 30.72 29.013333 10.24 10.24 19.626667 19.626667 29.013333 29.866667 9.386667 10.24 18.773333 20.48 27.306667 31.573333C214.186667 537.6 222.72 548.693333 231.253333 559.786667l12.8 16.213333 5.973334 8.533333 1.706666 2.56 1.706667 2.56 2.56 4.266667c7.68 11.946667 15.36 22.186667 21.333333 35.84l9.386667 19.626667 7.68 19.626666c5.973333 12.8 8.533333 27.306667 12.8 40.96 1.706667 6.826667 2.56 13.653333 4.266667 20.48 0.853333 6.826667 2.56 13.653333 3.413333 20.48l1.706667 21.333334c0.853333 6.826667 0.853333 13.653333 0.853333 21.333333 0.853333 13.653333 0 28.16-0.853333 41.813333-0.853333 13.653333-2.56 28.16-4.266667 41.813334-1.706667 13.653333-5.12 27.306667-7.68 40.96-3.413333 13.653333-6.826667 27.306667-11.946667 40.106666 0 0.853333-0.853333 0.853333-1.706666 0.853334s-0.853333-0.853333-0.853334-1.706667c3.413333-13.653333 5.973333-27.306667 7.68-40.106667 2.56-13.653333 3.413333-27.306667 5.12-40.96 0.853333-13.653333 1.706667-27.306667 1.706667-40.96 0-13.653333 0-27.306667-1.706667-40.96-0.853333-6.826667-0.853333-13.653333-1.706666-20.48l-1.706667-21.333333c-0.853333-6.826667-2.56-13.653333-4.266667-19.626667-1.706667-6.826667-2.56-13.653333-4.266666-19.626666-4.266667-12.8-7.68-25.6-12.8-38.4l-7.68-18.773334-9.386667-17.066666c-5.12-11.946667-14.506667-23.04-22.186667-34.133334l-2.56-4.266666-1.706666-2.56s0.853333 0.853333 0 0V597.333333l-0.853334-0.853333-6.826666-7.68-12.8-16.213333c-8.533333-10.24-17.066667-21.333333-26.453334-31.573334-8.533333-10.24-17.92-20.48-27.306666-30.72-9.386667-10.24-18.773333-20.48-28.16-29.866666-8.533333-10.24-18.773333-19.626667-29.013334-29.013334-10.24-9.386667-20.48-17.92-30.72-26.453333-10.24-8.533333-21.333333-17.066667-32.426666-23.04l-20.48-11.946667L42.666667 384c17.92-4.266667 34.986667-5.973333 52.906666-7.68 17.92-0.853333 34.986667-1.706667 52.906667 0 34.986667 1.706667 70.826667 8.533333 104.106667 22.186667 16.213333 6.826667 32.426667 14.506667 47.786666 23.893333 15.36 9.386667 29.013333 21.333333 40.96 33.28 6.826667 5.973333 11.946667 12.8 17.92 19.626667l7.68 10.24c2.56 3.413333 5.12 7.68 7.68 11.093333 5.12 7.68 9.386667 15.36 13.653334 23.04 3.413333 7.68 7.68 16.213333 11.093333 23.893333 6.826667 16.213333 11.093333 33.28 15.36 50.346667 4.266667 17.066667 6.826667 34.133333 8.533333 52.053333 1.706667 17.066667 3.413333 34.986667 3.413334 52.053334 0.853333 17.066667 0.853333 34.986667 0 52.053333-0.853333 34.986667-4.266667 69.12-9.386667 104.106667-5.12 34.133333-11.093333 68.266667-19.626667 102.4 0 0.853333-0.853333 0.853333-1.706666 0.853333 0.853333 0 0.853333 0 0.853333-0.853333z" fill="#545971" p-id="6739"></path><path d="M354.986667 956.586667S239.786667 778.24 411.306667 612.693333s530.773333-73.386667 530.773333-73.386666-230.4 72.533333-328.533333 147.626666-81.066667 269.653333-81.066667 269.653334" fill="#66B28A" p-id="6740"></path><path d="M354.133333 957.44c-10.24-17.066667-17.92-34.986667-24.746666-52.906667-5.973333-18.773333-11.093333-37.546667-13.653334-57.173333-5.12-39.253333-0.853333-79.36 11.946667-116.053333 5.973333-18.773333 14.506667-36.693333 24.746667-53.76s22.186667-33.28 34.986666-47.786667c6.826667-7.68 13.653333-14.506667 20.48-21.333333 7.68-6.826667 13.653333-13.653333 22.186667-19.626667 15.36-12.8 32.426667-22.186667 50.346667-32.426667 17.92-8.533333 35.84-17.066667 54.613333-23.04 9.386667-3.413333 18.773333-5.973333 28.16-8.533333 9.386667-2.56 18.773333-5.12 29.013333-6.826667 19.626667-4.266667 38.4-6.826667 58.026667-8.533333 19.626667-1.706667 39.253333-3.413333 58.88-3.413333 39.253333-0.853333 78.506667 0.853333 117.76 5.12 19.626667 1.706667 39.253333 4.266667 58.026667 7.68 19.626667 3.413333 38.4 6.826667 58.026666 11.093333l34.133334 7.68-34.133334 11.093333c-25.6 8.533333-51.2 17.92-76.8 27.306667-12.8 5.12-25.6 9.386667-37.546666 14.506667L792.746667 605.866667c-12.8 5.12-24.746667 10.24-37.546667 15.36-12.8 5.12-24.746667 11.093333-36.693333 17.066666s-23.893333 11.946667-36.693334 17.92c-11.946667 5.973333-23.893333 12.8-34.986666 19.626667l-8.533334 5.12-8.533333 5.973333-8.533333 5.973334c-0.853333 0.853333-3.413333 1.706667-3.413334 2.56l-4.266666 3.413333-4.266667 3.413333-2.56 1.706667-6.826667 6.826667c-4.266667 4.266667-8.533333 9.386667-12.8 14.506666-7.68 10.24-14.506667 22.186667-19.626666 34.133334-5.973333 11.946667-10.24 24.746667-14.506667 36.693333-7.68 25.6-12.8 52.053333-16.213333 79.36-1.706667 13.653333-2.56 27.306667-3.413334 40.106667-0.853333 13.653333-0.853333 27.306667-0.853333 40.96 0 0.853333 0 0.853333-0.853333 0.853333s-0.853333 0-0.853334-0.853333c-3.413333-27.306667-3.413333-54.613333-2.56-81.92 0.853333-27.306667 5.12-54.613333 11.946667-81.92 6.826667-26.453333 17.066667-53.76 33.28-76.8 4.266667-5.973333 8.533333-11.946667 13.653333-17.066667l7.68-7.68 4.266667-4.266667 4.266667-3.413333 4.266666-3.413333c1.706667-1.706667 2.56-2.56 4.266667-3.413334l8.533333-5.973333 8.533334-5.973333 8.533333-5.973334c11.946667-7.68 23.893333-14.506667 35.84-21.333333 11.946667-6.826667 23.893333-12.8 36.693333-18.773333 11.946667-5.973333 24.746667-11.946667 37.546667-17.066667 12.8-5.973333 25.6-11.093333 37.546667-16.213333 25.6-10.24 51.2-19.626667 76.8-29.013334s52.053333-17.92 77.653333-26.453333l0.853333 18.773333c-17.92-4.266667-37.546667-8.533333-56.32-11.946666-18.773333-3.413333-38.4-5.973333-57.173333-8.533334-38.4-4.266667-76.8-6.826667-115.2-6.826666-19.626667 0-38.4 0.853333-58.026667 2.56-18.773333 1.706667-38.4 4.266667-57.173333 7.68-9.386667 1.706667-18.773333 4.266667-28.16 5.973333-9.386667 2.56-18.773333 4.266667-27.306667 7.68-18.773333 5.12-35.84 12.8-52.906666 21.333333s-34.133333 17.92-48.64 29.866667c-7.68 5.12-14.506667 11.946667-22.186667 18.773333-6.826667 6.826667-13.653333 12.8-20.48 20.48-12.8 13.653333-24.746667 29.013333-34.986667 45.226667-10.24 16.213333-18.773333 33.28-25.6 51.2-13.653333 35.84-17.92 75.093333-13.653333 113.493333 1.706667 18.773333 5.973333 38.4 11.946667 56.32 5.973333 18.773333 13.653333 36.693333 23.04 52.906667v1.706667c-1.706667 1.706667-2.56 0.853333-3.413334 0.853333z" fill="#545971" p-id="6741"></path><path d="M488.106667 956.586667s-128-477.866667 56.32-711.68c184.32-233.813333 530.773333-151.893333 530.773333-151.893334s-133.973333 66.56-328.533333 305.493334c-195.413333 238.08-81.066667 558.933333-81.066667 558.933333" fill="#66B28A" p-id="6742"></path><path d="M487.253333 957.44c-6.826667-26.453333-12.8-53.76-17.92-80.213333-5.12-27.306667-10.24-53.76-13.653333-81.066667-7.68-54.613333-12.8-109.226667-13.653333-163.84 0-27.306667 0-54.613333 0.853333-82.773333 1.706667-27.306667 4.266667-54.613333 8.533333-81.92 1.706667-13.653333 5.12-27.306667 7.68-40.96 3.413333-13.653333 5.973333-27.306667 10.24-40.106667 7.68-26.453333 17.92-52.906667 29.866667-77.653333 11.946667-25.6 27.306667-48.64 44.373333-70.826667l12.8-16.213333c4.266667-5.12 9.386667-10.24 14.506667-15.36 5.12-5.12 10.24-10.24 15.36-14.506667 5.12-4.266667 10.24-9.386667 15.36-13.653333 21.333333-17.92 44.373333-33.28 69.12-46.08 24.746667-12.8 50.346667-23.893333 76.8-32.426667 52.906667-17.066667 108.373333-25.6 163.84-28.16 27.306667-0.853333 55.466667-0.853333 82.773333 1.706667 28.16 1.706667 55.466667 5.12 82.773334 11.093333l24.746666 5.12-23.04 12.8c-17.92 9.386667-35.84 22.186667-52.906666 34.986667-17.066667 12.8-34.133333 25.6-50.346667 40.106666-16.213333 13.653333-32.426667 28.16-47.786667 42.666667-7.68 6.826667-15.36 14.506667-23.04 22.186667-7.68 7.68-15.36 14.506667-23.04 23.04-15.36 15.36-29.866667 30.72-44.373333 46.933333-14.506667 15.36-29.013333 31.573333-43.52 47.786667-13.653333 16.213333-28.16 33.28-41.813333 49.493333-13.653333 17.066667-26.453333 33.28-36.693334 52.053333-2.56 4.266667-5.973333 9.386667-8.533333 13.653334l-7.68 11.093333c-5.12 9.386667-9.386667 18.773333-13.653333 28.16-8.533333 19.626667-16.213333 39.253333-22.186667 59.733333-6.826667 20.48-11.093333 40.96-15.36 62.293334-3.413333 21.333333-6.826667 42.666667-8.533333 64-1.706667 21.333333-2.56 42.666667-1.706667 64 0.853333 21.333333 1.706667 42.666667 4.266667 64 1.706667 21.333333 5.12 42.666667 9.386666 64 4.266667 21.333333 8.533333 42.666667 14.506667 63.146666 0 0.853333 0 0.853333-0.853333 1.706667-0.853333 0-0.853333 0-1.706667-0.853333-7.68-20.48-13.653333-40.96-18.773333-62.293334-5.12-21.333333-9.386667-42.666667-11.946667-64-6.826667-42.666667-8.533333-87.04-6.826667-130.56 0.853333-22.186667 3.413333-43.52 5.973334-65.706666 3.413333-21.333333 7.68-43.52 13.653333-64 5.973333-21.333333 13.653333-41.813333 21.333333-62.293334 4.266667-10.24 8.533333-20.48 13.653334-29.866666l7.68-14.506667c2.56-5.12 5.973333-9.386667 8.533333-14.506667 11.093333-18.773333 23.893333-37.546667 37.546667-54.613333 13.653333-17.066667 28.16-33.28 41.813333-50.346667 14.506667-16.213333 28.16-33.28 43.52-48.64l22.186667-23.893333 23.04-23.04 23.04-23.04c7.68-7.68 15.36-15.36 23.893333-22.186667 16.213333-14.506667 32.426667-29.013333 49.493333-42.666666s34.133333-27.306667 52.053334-40.106667c17.92-12.8 35.84-24.746667 56.32-35.84l1.706666 17.92c-25.6-5.973333-52.906667-9.386667-80.213333-11.946667-27.306667-2.56-53.76-3.413333-81.066667-2.56-53.76 1.706667-108.373333 9.386667-159.573333 25.6-25.6 8.533333-51.2 18.773333-75.093333 30.72-23.893333 12.8-46.933333 27.306667-67.413334 44.373334l-15.36 12.8c-5.12 4.266667-10.24 8.533333-14.506666 13.653333-4.266667 5.12-9.386667 9.386667-13.653334 14.506667l-13.653333 15.36c-16.213333 21.333333-31.573333 43.52-43.52 68.266666-11.946667 23.893333-22.186667 49.493333-29.866667 75.946667-4.266667 12.8-6.826667 26.453333-10.24 39.253333-2.56 13.653333-5.973333 26.453333-7.68 40.106667-5.12 26.453333-7.68 53.76-9.386666 81.066667-1.706667 27.306667-2.56 54.613333-2.56 81.92 0.853333 54.613333 4.266667 109.226667 11.093333 163.84 3.413333 27.306667 7.68 54.613333 12.8 81.066666 5.12 27.306667 10.24 53.76 17.066667 80.213334 0 0.853333 0 0.853333-0.853334 1.706666v-0.853333z" fill="#545971" p-id="6743"></path><path d="M770.56 942.933333s-31.573333-128.853333 13.653333-192.853333c46.08-63.146667 132.266667-40.96 132.266667-40.96s-33.28 17.92-81.92 82.773333c-48.64 64.853333-20.48 151.04-20.48 151.04" fill="#66B28A" p-id="6744"></path><path d="M768.853333 942.933333c-3.413333-13.653333-6.826667-28.16-8.533333-42.666666-0.853333-6.826667-1.706667-14.506667-2.56-21.333334-0.853333-6.826667-0.853333-14.506667-1.706667-21.333333 0-6.826667-0.853333-14.506667 0-22.186667 0-7.68 0-14.506667 1.706667-22.186666 0.853333-7.68 1.706667-14.506667 3.413333-22.186667 0.853333-3.413333 1.706667-6.826667 2.56-11.093333 0.853333-3.413333 1.706667-6.826667 3.413334-10.24l4.266666-10.24 5.973334-10.24c0.853333-1.706667 1.706667-3.413333 3.413333-5.12l3.413333-4.266667c2.56-2.56 4.266667-5.973333 6.826667-8.533333l8.533333-8.533334 9.386667-6.826666c6.826667-4.266667 12.8-7.68 20.48-10.24 3.413333-1.706667 6.826667-2.56 11.093333-3.413334 3.413333-0.853333 7.68-1.706667 11.093334-2.56 3.413333-0.853333 7.68-1.706667 11.093333-1.706666 3.413333-0.853333 7.68-0.853333 11.093333-0.853334 7.68-0.853333 15.36-0.853333 23.04 0 7.68 0.853333 14.506667 0.853333 23.04 2.56l22.186667 4.266667-20.48 12.8c-3.413333 2.56-8.533333 5.973333-12.8 9.386667-4.266667 3.413333-8.533333 6.826667-11.946667 11.093333-7.68 7.68-15.36 15.36-23.04 23.893333-7.68 8.533333-14.506667 17.066667-21.333333 25.6l-5.12 6.826667-2.56 3.413333s0.853333-0.853333 0-0.853333l-0.853333 0.853333-0.853334 1.706667c-3.413333 4.266667-6.826667 9.386667-9.386666 13.653333l-5.12 8.533334-3.413334 6.826666c-2.56 5.12-3.413333 10.24-5.973333 15.36-1.706667 5.12-2.56 10.24-4.266667 16.213334-0.853333 5.12-1.706667 11.093333-2.56 16.213333-0.853333 5.12-0.853333 11.093333-1.706666 16.213333v17.066667c0 11.093333 1.706667 22.186667 3.413333 34.133333 0 0.853333 0 0.853333-0.853333 0.853334s-0.853333 0-0.853334-0.853334c-5.12-11.093333-7.68-22.186667-10.24-33.28-1.706667-5.973333-1.706667-11.946667-2.56-17.066666-0.853333-5.973333-0.853333-11.946667-0.853333-17.92 0-5.973333 0-11.946667 0.853333-17.92l2.56-17.92c1.706667-5.973333 2.56-11.946667 5.12-17.92l3.413334-8.533334 4.266666-8.533333c2.56-5.973333 5.973333-10.24 8.533334-15.36l0.853333-1.706667 0.853333-0.853333 0.853334-1.706667 2.56-3.413333 5.12-6.826667c6.826667-9.386667 14.506667-17.92 23.04-26.453333 7.68-8.533333 16.213333-17.066667 25.6-24.746667 4.266667-4.266667 9.386667-7.68 13.653333-11.093333 5.12-3.413333 9.386667-6.826667 15.36-10.24l2.56 17.066667c-5.973333-1.706667-12.8-2.56-19.626667-3.413334-6.826667-0.853333-13.653333-0.853333-20.48-0.853333-3.413333 0-6.826667 0-10.24 0.853333-3.413333 0-6.826667 0.853333-10.24 1.706667-3.413333 0.853333-6.826667 0.853333-10.24 2.56-3.413333 0.853333-6.826667 1.706667-9.386666 2.56-5.973333 2.56-11.946667 5.12-17.92 8.533333l-8.533334 5.973334c-2.56 1.706667-5.12 4.266667-7.68 5.973333-2.56 1.706667-5.12 5.12-6.826666 7.68l-3.413334 4.266667c-0.853333 0.853333-1.706667 2.56-2.56 4.266666l-5.12 8.533334-4.266666 7.68c-1.706667 3.413333-2.56 5.973333-3.413334 9.386666-0.853333 3.413333-2.56 6.826667-3.413333 10.24-1.706667 6.826667-3.413333 13.653333-4.266667 20.48-0.853333 6.826667-1.706667 13.653333-2.56 21.333334-0.853333 6.826667-0.853333 14.506667-0.853333 21.333333s0 14.506667 0.853333 21.333333c0 6.826667 0.853333 14.506667 1.706667 21.333334 1.706667 14.506667 3.413333 28.16 5.973333 42.666666 0 0.853333 0 0.853333-0.853333 0.853334s-0.853333 0-1.706667-0.853334z" fill="#545971" p-id="6745"></path><path d="M298.666667 953.173333s-80.213333-249.173333 64-452.266666c142.506667-202.24 614.4-133.973333 614.4-133.973334s-448.853333 52.053333-546.986667 222.72c-98.986667 170.666667-43.52 364.373333-43.52 364.373334" fill="#66B28A" p-id="6746"></path><path d="M296.96 954.026667c-6.826667-22.186667-11.946667-46.08-15.36-69.12-1.706667-11.946667-3.413333-23.04-4.266667-34.986667-1.706667-11.946667-1.706667-23.04-2.56-34.986667-0.853333-23.893333-0.853333-46.933333 0.853334-70.826666 0-11.946667 2.56-23.893333 3.413333-34.986667 0.853333-11.946667 3.413333-23.04 5.973333-34.986667l3.413334-17.066666 5.12-17.066667c3.413333-11.093333 5.973333-23.04 10.24-34.133333 4.266667-11.093333 7.68-22.186667 12.8-33.28l15.36-31.573334c5.973333-10.24 11.946667-20.48 18.773333-30.72 3.413333-5.12 5.973333-10.24 10.24-15.36l11.093333-13.653333c16.213333-17.92 34.133333-34.133333 53.76-47.786667 19.626667-12.8 40.96-24.746667 63.146667-33.28 22.186667-9.386667 44.373333-17.066667 67.413333-23.04 23.04-5.973333 46.08-11.093333 69.12-15.36 23.04-4.266667 46.933333-6.826667 69.973334-9.386666 23.893333-1.706667 46.933333-3.413333 70.826666-4.266667 23.893333-0.853333 46.933333-0.853333 70.826667 0 23.893333 0.853333 46.933333 1.706667 70.826667 3.413333 23.893333 1.706667 46.933333 3.413333 70.826666 6.826667l69.12 8.533333-69.12 9.386667c-40.106667 5.12-80.213333 12.8-120.32 20.48-40.106667 8.533333-79.36 17.92-118.613333 29.013333-19.626667 5.973333-39.253333 11.093333-58.026667 17.92-19.626667 5.973333-38.4 12.8-57.173333 20.48-18.773333 7.68-37.546667 15.36-55.466667 24.746667-17.92 8.533333-35.84 18.773333-52.053333 29.013333-17.066667 10.24-32.426667 23.04-46.933333 36.693334-14.506667 13.653333-26.453333 29.013333-35.84 46.08-5.12 9.386667-10.24 17.92-14.506667 27.306666l-11.946667 27.306667-10.24 28.16c-3.413333 9.386667-5.12 19.626667-8.533333 29.013333-5.12 19.626667-8.533333 39.253333-11.093333 59.733334-2.56 20.48-3.413333 40.106667-3.413334 60.586666 0 20.48 0.853333 40.96 2.56 60.586667 1.706667 20.48 5.12 40.106667 9.386667 60.586667 0 0.853333 0 0.853333-0.853333 0.853333s-0.853333 0-0.853334-0.853333c-5.973333-19.626667-10.24-40.106667-12.8-60.586667-3.413333-20.48-5.12-40.96-5.973333-61.44-0.853333-20.48 0-40.96 1.706667-62.293333 1.706667-20.48 4.266667-40.96 8.533333-61.44 2.56-10.24 4.266667-20.48 6.826667-30.72 3.413333-10.24 5.973333-19.626667 9.386666-29.866667l11.946667-29.013333c4.266667-9.386667 9.386667-17.92 13.653333-27.306667 10.24-18.773333 23.04-36.693333 38.4-51.2 15.36-14.506667 31.573333-28.16 48.64-40.106667 8.533333-5.973333 17.92-11.093333 26.453334-17.066666 9.386667-5.12 17.92-10.24 27.306666-14.506667 18.773333-9.386667 37.546667-17.92 56.32-25.6 19.626667-7.68 38.4-14.506667 58.026667-21.333333s39.253333-11.946667 58.88-17.92C772.266667 392.533333 812.373333 384 852.48 375.466667c40.106667-7.68 81.066667-14.506667 122.026667-19.626667v17.92c-23.04-3.413333-46.08-5.973333-69.12-7.68-23.04-1.706667-46.933333-3.413333-69.973334-4.266667-23.04-0.853333-46.933333-0.853333-69.973333-0.853333-23.04 0-46.933333 1.706667-69.973333 3.413333-23.04 1.706667-46.08 4.266667-69.12 8.533334-23.04 3.413333-46.08 7.68-68.266667 13.653333-22.186667 5.973333-44.373333 12.8-65.706667 21.333333s-41.813333 19.626667-61.44 31.573334c-19.626667 12.8-36.693333 28.16-52.053333 44.373333L367.786667 497.493333c-3.413333 4.266667-6.826667 9.386667-9.386667 14.506667-5.973333 10.24-12.8 19.626667-18.773333 29.866667l-16.213334 30.72c-5.12 10.24-8.533333 21.333333-13.653333 32.426666-5.12 11.093333-7.68 22.186667-11.093333 33.28l-5.12 17.066667-3.413334 17.066667c-2.56 11.093333-5.12 23.04-5.973333 34.133333-1.706667 11.946667-3.413333 23.04-4.266667 34.986667-1.706667 23.04-2.56 46.933333-1.706666 69.973333 0 11.946667 0.853333 23.04 1.706666 34.986667 0.853333 11.946667 2.56 23.04 4.266667 34.986666 3.413333 23.04 7.68 46.08 14.506667 69.12 0 0.853333 0 0.853333-0.853334 1.706667 0 2.56 0 1.706667-0.853333 1.706667z" fill="#545971" p-id="6747"></path><path d="M805.546667 871.253333S852.48 725.333333 768 605.866667C683.52 487.253333 549.546667 437.76 549.546667 437.76s121.173333 119.466667 178.346666 219.306667c58.026667 99.84 25.6 213.333333 25.6 213.333333" fill="#66B28A" p-id="6748"></path><path d="M804.693333 870.4c3.413333-11.093333 5.12-22.186667 6.826667-34.133333 1.706667-11.093333 2.56-23.04 3.413333-34.133334 0.853333-11.093333 0.853333-23.04 0-34.133333 0-5.973333-0.853333-11.093333-0.853333-17.066667l-0.853333-8.533333-0.853334-8.533333c-1.706667-11.093333-4.266667-22.186667-6.826666-33.28-1.706667-5.12-3.413333-11.093333-5.12-16.213334l-2.56-8.533333-3.413334-7.68c-2.56-5.12-4.266667-10.24-6.826666-15.36l-7.68-15.36c-2.56-5.12-5.973333-10.24-8.533334-14.506667-3.413333-4.266667-5.973333-9.386667-9.386666-13.653333-6.826667-8.533333-13.653333-18.773333-21.333334-26.453333l-11.093333-12.8-11.946667-13.653334c-4.266667-4.266667-8.533333-7.68-12.8-11.946666-4.266667-3.413333-8.533333-7.68-12.8-11.093334-8.533333-6.826667-17.92-14.506667-27.306666-21.333333s-18.773333-12.8-28.16-19.626667l-14.506667-9.386666-14.506667-8.533334c-10.24-5.12-20.48-11.093333-30.72-15.36-10.24-5.12-20.48-9.386667-30.72-12.8l9.386667-14.506666c15.36 14.506667 29.866667 29.866667 44.373333 45.226666 14.506667 15.36 29.013333 30.72 42.666667 46.933334 6.826667 7.68 13.653333 16.213333 20.48 23.893333 6.826667 7.68 13.653333 16.213333 19.626667 24.746667 5.973333 8.533333 12.8 17.066667 18.773333 25.6 5.973333 8.533333 11.946667 17.066667 17.92 26.453333 5.973333 8.533333 11.093333 17.92 16.213333 27.306667 5.12 10.24 9.386667 18.773333 13.653334 29.866666 4.266667 10.24 6.826667 20.48 10.24 31.573334 2.56 10.24 4.266667 21.333333 5.973333 31.573333 0.853333 5.12 0.853333 11.093333 1.706667 16.213333 0.853333 5.12 0.853333 11.093333 0.853333 16.213334V793.6c0 5.12 0 10.24-0.853333 16.213333-0.853333 10.24-2.56 21.333333-4.266667 31.573334-1.706667 10.24-4.266667 20.48-7.68 30.72 0 0.853333-0.853333 0.853333-1.706667 0.853333s-0.853333-0.853333-0.853333-0.853333c1.706667-10.24 3.413333-20.48 4.266667-30.72 0.853333-10.24 0.853333-20.48 0.853333-30.72 0-5.12 0-10.24-0.853333-15.36 0-5.12-0.853333-10.24-0.853334-15.36 0-5.12-0.853333-10.24-1.706666-15.36l-2.56-15.36c-0.853333-5.12-1.706667-10.24-3.413334-15.36l-4.266666-14.506667c-3.413333-9.386667-6.826667-19.626667-11.093334-28.16-3.413333-8.533333-9.386667-18.773333-13.653333-27.306667-5.973333-8.533333-11.093333-17.066667-17.066667-25.6l-17.92-25.6c-5.973333-8.533333-12.8-16.213333-18.773333-24.746666-12.8-16.213333-25.6-32.426667-39.253333-48.64-26.453333-31.573333-54.613333-63.146667-83.626667-93.013334l-29.013333-29.866666 38.4 15.36c11.093333 4.266667 22.186667 9.386667 32.426666 14.506666 10.24 5.12 20.48 11.093333 30.72 17.066667l15.36 9.386667 14.506667 9.386666c9.386667 6.826667 19.626667 13.653333 28.16 20.48 9.386667 6.826667 17.92 14.506667 27.306667 22.186667 4.266667 4.266667 8.533333 7.68 12.8 11.946667 4.266667 4.266667 8.533333 7.68 12.8 11.946666l11.946666 12.8 11.093334 13.653334c7.68 8.533333 14.506667 18.773333 21.333333 27.306666 3.413333 5.12 5.973333 10.24 9.386667 15.36 3.413333 5.12 5.973333 10.24 8.533333 15.36l7.68 16.213334c2.56 5.12 4.266667 11.093333 5.973333 16.213333l3.413334 8.533333 2.56 8.533334c1.706667 5.973333 3.413333 11.093333 4.266666 17.066666 2.56 11.946667 4.266667 23.04 5.12 34.986667l0.853334 8.533333v8.533334c0 5.973333 0.853333 11.946667 0.853333 17.92 0 11.946667-0.853333 23.04-1.706667 34.986666-0.853333 11.946667-2.56 23.04-5.12 34.133334-1.706667 11.093333-5.12 23.04-8.533333 34.133333 0 0.853333-0.853333 0.853333-1.706667 0.853333 2.56-1.706667 2.56-2.56 2.56-3.413333z" fill="#545971" p-id="6749"></path><path d="M607.573333 955.733333s20.48-64-16.213333-115.2C554.666667 788.48 495.786667 767.146667 495.786667 767.146667s52.906667 52.053333 77.653333 95.573333c24.746667 43.52 11.093333 93.013333 11.093333 93.013333" fill="#66B28A" p-id="6750"></path><path d="M605.866667 954.88c2.56-9.386667 3.413333-19.626667 4.266666-29.866667v-14.506666c0-5.12-0.853333-10.24-1.706666-14.506667-0.853333-5.12-1.706667-9.386667-3.413334-14.506667-1.706667-4.266667-2.56-9.386667-5.12-13.653333-1.706667-4.266667-4.266667-8.533333-6.826666-12.8-2.56-4.266667-5.12-8.533333-7.68-11.946667-3.413333-3.413333-5.973333-8.533333-9.386667-11.093333l-10.24-10.24c-3.413333-3.413333-7.68-6.826667-11.093333-9.386667-4.266667-3.413333-7.68-5.973333-11.946667-8.533333-7.68-5.973333-16.213333-11.093333-24.746667-15.36-4.266667-2.56-8.533333-4.266667-12.8-6.826667-4.266667-1.706667-9.386667-4.266667-12.8-5.12l9.386667-14.506666c13.653333 12.8 26.453333 25.6 39.253333 39.253333 5.973333 6.826667 11.946667 13.653333 17.92 21.333333 5.973333 7.68 11.093333 15.36 16.213334 23.04 2.56 4.266667 5.12 8.533333 6.826666 12.8 2.56 5.12 4.266667 8.533333 5.973334 13.653334 1.706667 5.12 2.56 9.386667 4.266666 14.506666 0.853333 5.12 1.706667 9.386667 1.706667 14.506667 0 5.12 0.853333 9.386667 0 14.506667 0 5.12-0.853333 9.386667-1.706667 14.506666-1.706667 9.386667-3.413333 18.773333-7.68 27.306667 0 0.853333-0.853333 0.853333-1.706666 0.853333s-0.853333-0.853333-0.853334-0.853333c1.706667-17.92 0-35.84-4.266666-52.906667-0.853333-4.266667-2.56-8.533333-3.413334-11.946666-1.706667-4.266667-3.413333-7.68-5.12-11.093334-1.706667-3.413333-4.266667-7.68-5.973333-11.093333-2.56-3.413333-5.12-7.68-7.68-11.093333-5.12-6.826667-10.24-14.506667-16.213333-21.333334l-17.066667-21.333333c-11.093333-13.653333-23.04-28.16-34.986667-40.96l-29.013333-30.72 38.4 16.213333c5.12 2.56 9.386667 4.266667 14.506667 6.826667 4.266667 2.56 9.386667 5.12 13.653333 7.68 8.533333 5.12 17.066667 11.093333 25.6 17.92 4.266667 3.413333 7.68 6.826667 11.946667 10.24 3.413333 3.413333 7.68 6.826667 11.093333 11.093333 3.413333 3.413333 6.826667 7.68 10.24 11.946667 3.413333 4.266667 5.973333 8.533333 9.386667 11.946667 2.56 5.12 5.973333 9.386667 7.68 13.653333 2.56 5.12 4.266667 9.386667 5.973333 14.506667 1.706667 5.12 2.56 10.24 4.266667 15.36l2.56 15.36c1.706667 20.48-0.853333 40.96-6.826667 60.586666 0 0.853333-0.853333 0.853333-1.706667 0.853334 1.706667-2.56 0.853333-3.413333 0.853334-4.266667z" fill="#545971" p-id="6751"></path><path d="M708.266667 956.586667s45.226667-182.613333-19.626667-272.213334-186.88-58.026667-186.88-58.026666 46.933333 25.6 116.053333 116.906666 28.16 213.333333 28.16 213.333334" fill="#66B28A" p-id="6752"></path><path d="M707.413333 956.586667c2.56-10.24 3.413333-19.626667 5.12-29.866667 1.706667-10.24 2.56-20.48 4.266667-29.866667 0.853333-10.24 1.706667-20.48 2.56-29.866666 0.853333-10.24 0.853333-20.48 0.853333-29.866667 0-10.24 0-20.48-0.853333-29.866667-0.853333-10.24-1.706667-19.626667-3.413333-29.866666-0.853333-10.24-3.413333-19.626667-5.973334-29.013334-0.853333-5.12-2.56-9.386667-4.266666-14.506666-1.706667-5.12-2.56-9.386667-5.12-13.653334l-5.973334-13.653333-7.68-11.946667c-1.706667-1.706667-2.56-4.266667-4.266666-5.973333l-5.12-5.973333c-3.413333-3.413333-6.826667-8.533333-10.24-11.093334-3.413333-3.413333-6.826667-5.973333-10.24-9.386666l-11.946667-8.533334c-8.533333-5.12-17.066667-9.386667-26.453333-12.8-4.266667-1.706667-9.386667-3.413333-13.653334-4.266666-4.266667-1.706667-9.386667-2.56-14.506666-3.413334-4.266667-1.706667-9.386667-1.706667-13.653334-2.56-5.12-0.853333-9.386667-0.853333-14.506666-0.853333-9.386667-0.853333-19.626667 0-29.013334 0.853333-10.24 0.853333-20.48 2.56-29.013333 5.12l2.56-17.066666c8.533333 4.266667 14.506667 9.386667 21.333333 14.506666 6.826667 5.12 12.8 10.24 19.626667 16.213334 5.973333 5.12 11.946667 11.093333 17.92 17.066666 5.973333 5.973333 11.946667 11.946667 17.066667 17.92 5.973333 5.973333 11.093333 11.946667 16.213333 18.773334 5.12 5.973333 10.24 12.8 15.36 18.773333l7.68 9.386667 3.413333 5.12 0.853334 1.706666 0.853333 0.853334 1.706667 2.56c4.266667 6.826667 8.533333 12.8 12.8 21.333333l5.973333 11.946667 4.266667 11.946666c3.413333 7.68 5.12 16.213333 6.826666 24.746667 1.706667 8.533333 3.413333 16.213333 4.266667 24.746667 0.853333 8.533333 1.706667 17.066667 1.706667 24.746666 0 8.533333-0.853333 16.213333-0.853334 24.746667-0.853333 8.533333-1.706667 16.213333-3.413333 24.746667-1.706667 7.68-3.413333 16.213333-5.12 23.893333-1.706667 7.68-4.266667 15.36-7.68 23.04 0 0.853333-0.853333 0.853333-1.706667 0.853333s-0.853333-0.853333-0.853333-0.853333c3.413333-15.36 5.12-31.573333 5.973333-47.786667 0.853333-7.68 0.853333-16.213333 0.853334-23.893333 0-7.68-0.853333-16.213333-1.706667-23.893333-0.853333-7.68-1.706667-15.36-3.413333-23.04l-5.12-23.04c-2.56-7.68-4.266667-14.506667-7.68-22.186667l-4.266667-10.24-5.12-9.386667c-3.413333-6.826667-8.533333-12.8-12.8-19.626666l-1.706667-2.56-0.853333-0.853334s0.853333 0.853333 0 0l-0.853333-0.853333-3.413334-5.12-7.68-9.386667c-10.24-12.8-20.48-24.746667-30.72-36.693333-10.24-11.946667-21.333333-23.04-33.28-34.133333-5.973333-5.12-11.946667-11.093333-17.92-15.36-5.973333-5.12-12.8-10.24-17.92-13.653334L477.013333 622.933333l22.186667-5.12c11.093333-2.56 21.333333-3.413333 31.573333-4.266666 10.24-0.853333 21.333333-0.853333 31.573334 0 5.12 0 10.24 0.853333 15.36 1.706666l15.36 2.56c5.12 0.853333 10.24 2.56 15.36 4.266667 5.12 1.706667 10.24 2.56 15.36 5.12 10.24 3.413333 19.626667 9.386667 28.16 14.506667l12.8 9.386666c4.266667 3.413333 7.68 7.68 11.946666 11.093334 4.266667 3.413333 6.826667 7.68 10.24 11.946666l5.12 5.973334c2.56 2.56 2.56 4.266667 4.266667 6.826666l7.68 13.653334 5.973333 14.506666c2.56 5.12 3.413333 9.386667 5.12 14.506667 1.706667 5.12 3.413333 10.24 4.266667 15.36 1.706667 10.24 4.266667 20.48 5.12 30.72 1.706667 10.24 1.706667 20.48 1.706667 30.72v30.72c-0.853333 10.24-0.853333 20.48-2.56 30.72-0.853333 10.24-2.56 20.48-3.413334 30.72-1.706667 10.24-3.413333 20.48-5.12 29.866667-1.706667 10.24-4.266667 19.626667-6.826666 29.866666 0 0.853333-0.853333 0.853333-1.706667 0.853334 0.853333-1.706667 0.853333-1.706667 0.853333-2.56z" fill="#545971" p-id="6753"></path><path d="M683.52 956.586667s-67.413333-104.96 32.426667-201.386667c100.693333-97.28 310.613333-43.52 310.613333-43.52s-134.826667 42.666667-192.853333 86.186667C775.68 841.386667 785.92 955.733333 785.92 955.733333" fill="#66B28A" p-id="6754"></path><path d="M682.666667 957.44c-5.973333-9.386667-11.093333-20.48-14.506667-31.573333-4.266667-11.093333-5.973333-22.186667-8.533333-33.28 0-5.973333-0.853333-11.946667-0.853334-17.066667 0-5.973333 0-11.946667 0.853334-17.066667 0.853333-11.946667 3.413333-23.04 6.826666-34.133333 1.706667-5.12 4.266667-11.093333 5.973334-16.213333l8.533333-15.36c2.56-5.12 6.826667-9.386667 9.386667-14.506667l5.12-6.826667 5.973333-6.826666c4.266667-4.266667 7.68-8.533333 11.946667-12.8 4.266667-3.413333 7.68-7.68 12.8-11.093334 9.386667-7.68 19.626667-13.653333 29.866666-19.626666 10.24-5.12 21.333333-10.24 32.426667-13.653334 11.093333-3.413333 22.186667-6.826667 34.133333-9.386666 23.04-5.12 46.08-6.826667 69.12-7.68 23.04-0.853333 46.08 0 69.12 2.56 11.093333 0.853333 23.04 2.56 34.133334 4.266666 11.093333 1.706667 23.04 3.413333 34.133333 5.973334l34.133333 7.68-33.28 11.093333c-14.506667 5.12-29.866667 11.093333-44.373333 16.213333-14.506667 5.973333-29.866667 11.946667-44.373333 17.066667-14.506667 5.973333-29.013333 11.946667-43.52 18.773333-6.826667 3.413333-14.506667 6.826667-21.333334 10.24-6.826667 3.413333-13.653333 6.826667-20.48 11.093334-3.413333 1.706667-6.826667 4.266667-9.386666 5.973333l-5.12 3.413333-0.853334 0.853334h-0.853333s0.853333-0.853333 0.853333 0l-2.56 1.706666c-2.56 2.56-6.826667 5.12-8.533333 7.68l-6.826667 7.68-5.973333 9.386667-5.12 10.24c-3.413333 6.826667-5.973333 13.653333-8.533333 21.333333-0.853333 3.413333-2.56 7.68-3.413334 11.093334-0.853333 3.413333-1.706667 7.68-2.56 11.093333-1.706667 7.68-3.413333 15.36-4.266666 23.04-2.56 15.36-3.413333 31.573333-3.413334 47.786667 0 0.853333-0.853333 0.853333-0.853333 0.853333-0.853333 0-0.853333 0-0.853333-0.853333-2.56-16.213333-2.56-32.426667-2.56-48.64 0-8.533333 0.853333-16.213333 1.706666-24.746667 0-4.266667 0.853333-7.68 1.706667-11.946667 0.853333-4.266667 1.706667-7.68 2.56-11.946666 1.706667-7.68 4.266667-16.213333 7.68-23.893334 1.706667-4.266667 3.413333-7.68 5.12-11.946666l6.826667-11.093334c2.56-3.413333 5.12-6.826667 8.533333-11.093333 2.56-3.413333 5.973333-5.973333 8.533333-8.533333l2.56-1.706667 0.853334-0.853333 0.853333-0.853334 0.853333-0.853333 5.12-3.413333c3.413333-2.56 6.826667-5.12 10.24-6.826667 6.826667-4.266667 13.653333-8.533333 21.333334-12.8 6.826667-4.266667 14.506667-7.68 21.333333-11.093333 14.506667-6.826667 29.013333-13.653333 44.373333-19.626667 14.506667-5.973333 29.866667-11.946667 45.226667-17.066667l46.08-15.36 0.853333 18.773334c-10.24-2.56-21.333333-5.12-32.426666-6.826667l-33.28-5.12c-22.186667-2.56-44.373333-4.266667-67.413334-4.266667-22.186667 0-45.226667 1.706667-66.56 5.973334-11.093333 1.706667-22.186667 4.266667-32.426666 7.68-11.093333 3.413333-20.48 7.68-30.72 11.946666-9.386667 5.12-19.626667 10.24-28.16 17.066667-4.266667 2.56-8.533333 6.826667-12.8 11.093333-3.413333 3.413333-7.68 7.68-11.093334 11.946667l-9.386666 5.973333-5.12 6.826667c-3.413333 4.266667-6.826667 8.533333-10.24 13.653333l-8.533334 14.506667c-2.56 5.12-4.266667 10.24-6.826666 15.36-3.413333 10.24-6.826667 21.333333-7.68 32.426667-0.853333 5.12-0.853333 11.093333-0.853334 17.066666s0 11.093333 0.853334 17.066667c1.706667 11.093333 3.413333 22.186667 6.826666 33.28 3.413333 11.093333 7.68 21.333333 12.8 30.72v1.706667l-1.706666-1.706667z" fill="#545971" p-id="6755"></path><path d="M761.173333 956.586667s-75.093333-279.893333 32.426667-417.28c108.373333-137.386667 310.613333-89.6 310.613333-89.6s-78.506667 39.253333-192.853333 179.2c-114.346667 139.946667-47.786667 327.68-47.786667 327.68" fill="#66B28A" p-id="6756"></path><path d="M760.32 957.44c-8.533333-31.573333-14.506667-63.146667-18.773333-94.72-4.266667-31.573333-7.68-64-8.533334-96.426667-0.853333-32.426667 0-64.853333 5.12-97.28 2.56-16.213333 5.973333-32.426667 10.24-47.786666 4.266667-15.36 10.24-30.72 17.066667-46.08 6.826667-15.36 16.213333-29.013333 26.453333-41.813334 9.386667-12.8 22.186667-24.746667 34.133334-34.986666 25.6-21.333333 55.466667-36.693333 86.186666-46.933334 31.573333-10.24 64-15.36 97.28-17.066666 16.213333-0.853333 32.426667-0.853333 49.493334 0.853333 16.213333 0.853333 32.426667 2.56 49.493333 5.973333l24.746667 5.12-23.04 12.8c-10.24 5.12-20.48 12.8-30.72 20.48-10.24 7.68-19.626667 15.36-29.013334 23.04-9.386667 8.533333-18.773333 16.213333-28.16 24.746667-9.386667 8.533333-17.92 17.066667-27.306666 26.453333-8.533333 9.386667-17.066667 17.92-25.6 27.306667l-25.6 28.16c-4.266667 4.266667-8.533333 9.386667-11.946667 14.506667l-5.973333 6.826666-3.413334 3.413334-1.706666 1.706666s0.853333-0.853333 0 0v0.853334l-0.853334 0.853333-11.093333 15.36c-3.413333 5.12-7.68 10.24-10.24 15.36-5.973333 10.24-12.8 20.48-17.066667 32.426667-2.56 5.973333-5.12 11.093333-7.68 17.066666l-5.973333 16.213334c-2.56 5.973333-3.413333 11.946667-5.12 17.92-1.706667 5.973333-2.56 11.946667-4.266667 17.92-1.706667 11.946667-4.266667 24.746667-5.12 36.693333-1.706667 12.8-1.706667 24.746667-1.706666 37.546667 0 12.8 0.853333 24.746667 1.706666 37.546666 0.853333 12.8 2.56 24.746667 4.266667 37.546667 2.56 12.8 4.266667 24.746667 7.68 36.693333 0 0.853333 0 0.853333-0.853333 1.706667-0.853333 0-0.853333 0-1.706667-0.853333-5.12-11.946667-8.533333-23.893333-11.946667-36.693334-3.413333-12.8-5.973333-24.746667-7.68-37.546666-2.56-12.8-3.413333-25.6-4.266666-38.4-0.853333-12.8-0.853333-25.6-0.853334-38.4s1.706667-25.6 3.413334-38.4c0.853333-6.826667 2.56-12.8 3.413333-18.773334 0.853333-5.973333 2.56-12.8 4.266667-18.773333l5.973333-18.773333c1.706667-5.973333 5.12-11.946667 6.826667-17.92 4.266667-11.946667 11.093333-23.893333 17.92-35.84 3.413333-5.973333 6.826667-11.093333 10.24-16.213334l11.093333-15.36 0.853333-0.853333v-0.853333l0.853334-0.853334 1.706666-1.706666 3.413334-3.413334 5.973333-7.68c4.266667-5.12 8.533333-10.24 11.946667-14.506666 8.533333-9.386667 17.066667-19.626667 25.6-29.013334l12.8-14.506666 13.653333-13.653334c9.386667-9.386667 17.92-17.92 28.16-26.453333 9.386667-8.533333 18.773333-17.066667 29.013333-25.6 10.24-8.533333 20.48-16.213333 30.72-23.893333 11.093333-7.68 21.333333-14.506667 33.28-21.333334l1.706667 17.92c-14.506667-3.413333-30.72-5.973333-46.08-6.826666-15.36-1.706667-31.573333-1.706667-46.933333-1.706667-31.573333 0.853333-63.146667 5.12-93.013334 14.506667s-58.026667 23.893333-82.773333 43.52c-11.946667 10.24-23.04 20.48-33.28 33.28-9.386667 11.946667-18.773333 24.746667-25.6 39.253333-6.826667 13.653333-12.8 29.013333-17.066667 43.52-5.12 15.36-8.533333 30.72-11.093333 46.08-5.12 31.573333-7.68 63.146667-7.68 95.573333 0 32.426667 2.56 64 5.973333 95.573334 4.266667 31.573333 9.386667 63.146667 17.066667 94.72 0 0.853333 0 0.853333-0.853333 1.706666 1.706667 0 0.853333-0.853333 0.853333-0.853333z" fill="#545971" p-id="6757"></path><path d="M926.72 948.906667s-18.773333-75.946667 8.533333-112.64c27.306667-37.546667 77.653333-23.893333 77.653334-23.893334s-19.626667 10.24-47.786667 48.64c-28.16 37.546667-11.946667 88.746667-11.946667 88.746667" fill="#66B28A" p-id="6758"></path><path d="M925.866667 948.906667c-4.266667-16.213333-7.68-33.28-8.533334-50.346667-0.853333-8.533333-0.853333-17.066667 0-25.6 0-4.266667 0.853333-8.533333 1.706667-12.8s1.706667-8.533333 3.413333-12.8l2.56-5.973333 3.413334-5.973334c0.853333-0.853333 0.853333-1.706667 1.706666-3.413333l1.706667-2.56c1.706667-1.706667 2.56-3.413333 4.266667-5.12l5.12-5.12 5.973333-4.266667c4.266667-2.56 7.68-5.12 11.946667-6.826666 4.266667-1.706667 8.533333-3.413333 13.653333-4.266667 4.266667-0.853333 9.386667-1.706667 13.653333-1.706667h13.653334c4.266667 0 8.533333 0.853333 14.506666 1.706667l21.333334 4.266667-19.626667 12.8c-1.706667 0.853333-4.266667 3.413333-6.826667 5.12-2.56 1.706667-4.266667 4.266667-6.826666 6.826666-4.266667 4.266667-8.533333 9.386667-12.8 13.653334l-12.8 14.506666-3.413334 3.413334-1.706666 1.706666s0.853333-0.853333 0-0.853333v0.853333l-0.853334 0.853334c-1.706667 2.56-4.266667 5.973333-5.12 7.68l-0.853333 4.266666-1.706667 4.266667c-1.706667 2.56-2.56 5.12-3.413333 8.533333-1.706667 5.973333-3.413333 11.946667-4.266667 17.92-1.706667 12.8-2.56 25.6-1.706666 39.253334 0 0.853333 0 0.853333-0.853334 0.853333s-0.853333 0-0.853333-0.853333c-3.413333-5.973333-5.973333-12.8-7.68-19.626667-1.706667-6.826667-2.56-13.653333-3.413333-21.333333-0.853333-6.826667 0-14.506667 1.706666-21.333334 0.853333-3.413333 1.706667-7.68 2.56-11.093333l1.706667-5.12 2.56-5.12c1.706667-4.266667 3.413333-6.826667 5.12-9.386667l0.853333-0.853333v-0.853333l0.853334-0.853334 1.706666-1.706666 3.413334-4.266667c4.266667-5.12 8.533333-11.093333 13.653333-16.213333 5.12-5.12 10.24-10.24 15.36-14.506667 2.56-2.56 5.973333-4.266667 8.533333-6.826667 3.413333-2.56 5.973333-4.266667 10.24-5.973333l2.56 17.066667c-3.413333-0.853333-6.826667-1.706667-11.093333-1.706667-3.413333 0-7.68-0.853333-11.093333-0.853333s-7.68 0-11.093334 0.853333-7.68 1.706667-11.093333 2.56c-3.413333 0.853333-6.826667 2.56-10.24 4.266667l-4.266667 3.413333-4.266666 3.413333c-1.706667 0.853333-2.56 2.56-4.266667 4.266667l-1.706667 2.56s-0.853333 1.706667-1.706666 1.706667l-3.413334 5.12-2.56 5.12c-1.706667 3.413333-2.56 7.68-4.266666 11.093333-0.853333 4.266667-1.706667 7.68-2.56 11.946667-1.706667 7.68-1.706667 16.213333-2.56 24.746666 0 16.213333 0.853333 33.28 3.413333 49.493334 0 0.853333 0 0.853333-0.853333 0.853333-1.706667 0-2.56 0-2.56-0.853333z" fill="#545971" p-id="6759"></path><path d="M650.24 954.88s-46.933333-145.92 37.546667-265.386667c84.48-118.613333 360.96-78.506667 360.96-78.506666S785.92 641.706667 727.893333 741.546667c-58.026667 99.84-25.6 213.333333-25.6 213.333333" fill="#66B28A" p-id="6760"></path><path d="M649.386667 954.88c-4.266667-13.653333-6.826667-26.453333-9.386667-40.106667-2.56-13.653333-3.413333-27.306667-4.266667-40.96-0.853333-13.653333-0.853333-27.306667 0-41.813333 0-6.826667 0.853333-13.653333 1.706667-20.48 0.853333-6.826667 1.706667-13.653333 3.413333-20.48l1.706667-10.24 2.56-10.24c1.706667-6.826667 3.413333-13.653333 5.973333-19.626667 2.56-6.826667 4.266667-12.8 7.68-19.626666l9.386667-18.773334c3.413333-5.973333 6.826667-11.946667 11.093333-17.92 1.706667-3.413333 3.413333-5.973333 5.973334-9.386666l5.973333-8.533334c9.386667-11.093333 20.48-20.48 31.573333-28.16 11.946667-7.68 23.893333-14.506667 37.546667-20.48 12.8-5.12 26.453333-10.24 40.106667-13.653333 27.306667-7.68 54.613333-11.946667 82.773333-14.506667 28.16-2.56 55.466667-3.413333 83.626667-3.413333 13.653333 0 28.16 0.853333 41.813333 1.706667 13.653333 0.853333 27.306667 1.706667 41.813333 3.413333l69.12 8.533333-69.12 9.386667c-23.04 3.413333-46.933333 7.68-69.973333 12.8-23.04 5.12-46.08 11.093333-69.12 17.066667-23.04 6.826667-45.226667 13.653333-67.413333 22.186666-11.093333 4.266667-21.333333 8.533333-32.426667 14.506667-10.24 5.12-20.48 10.24-30.72 17.066667-10.24 5.973333-18.773333 12.8-27.306667 20.48-8.533333 7.68-15.36 16.213333-20.48 25.6-2.56 5.12-5.973333 10.24-8.533333 15.36l-6.826667 15.36c-4.266667 11.093333-7.68 22.186667-11.093333 33.28-2.56 11.093333-5.12 23.04-6.826667 34.133333-1.706667 11.946667-2.56 23.04-2.56 34.986667 0 11.946667 0 23.893333 0.853334 35.84 0.853333 11.946667 2.56 23.893333 4.266666 34.986666 0 0.853333 0 0.853333-0.853333 0.853334s-0.853333 0-0.853333-0.853334c-7.68-23.04-11.093333-46.933333-12.8-71.68-1.706667-23.893333 0-48.64 5.12-73.386666 2.56-11.946667 5.973333-23.893333 9.386666-35.84l6.826667-17.92c2.56-5.973333 5.12-11.093333 7.68-16.213334 5.973333-11.946667 13.653333-22.186667 23.04-31.573333 9.386667-8.533333 18.773333-17.066667 29.013333-23.893333 10.24-6.826667 21.333333-13.653333 32.426667-18.773334 11.093333-5.973333 22.186667-10.24 33.28-15.36 11.093333-4.266667 23.04-8.533333 34.133333-12.8 11.946667-3.413333 23.04-6.826667 34.986667-10.24 23.04-5.973333 46.933333-11.946667 70.826667-16.213333 23.893333-4.266667 47.786667-8.533333 71.68-11.093333v17.92c-12.8-1.706667-27.306667-3.413333-40.106667-4.266667l-40.96-2.56c-27.306667-0.853333-54.613333-0.853333-81.92 1.706667-27.306667 2.56-53.76 5.973333-80.213333 12.8-12.8 3.413333-25.6 7.68-38.4 12.8s-24.746667 11.093333-35.84 17.92c-11.093333 7.68-21.333333 16.213333-29.866667 25.6l-5.973333 11.093333c-1.706667 2.56-3.413333 5.12-5.973334 8.533333-3.413333 5.973333-7.68 11.093333-11.093333 17.066667L666.453333 734.72c-3.413333 5.973333-5.12 12.8-7.68 18.773333-2.56 5.973333-4.266667 12.8-6.826666 19.626667l-2.56 9.386667-2.56 10.24c-1.706667 6.826667-3.413333 13.653333-3.413334 20.48-0.853333 6.826667-2.56 13.653333-2.56 20.48-0.853333 13.653333-1.706667 27.306667-0.853333 40.96 0 13.653333 1.706667 27.306667 3.413333 40.96 1.706667 13.653333 4.266667 27.306667 7.68 40.106666 0 0.853333 0 0.853333-0.853333 1.706667 0-1.706667-0.853333-1.706667-0.853333-2.56z" fill="#545971" p-id="6761"></path></svg>