<?xml version="1.0" standalone="no"?><!DOCTYPE svg PUBLIC "-//W3C//DTD SVG 1.1//EN" "http://www.w3.org/Graphics/SVG/1.1/DTD/svg11.dtd"><svg t="1659971352871" class="icon" viewBox="0 0 1024 1024" version="1.1" xmlns="http://www.w3.org/2000/svg" p-id="8436" xmlns:xlink="http://www.w3.org/1999/xlink" width="200" height="200"><defs><style type="text/css">@font-face { font-family: feedback-iconfont; src: url("//at.alicdn.com/t/font_1031158_u69w8yhxdu.woff2?t=1630033759944") format("woff2"), url("//at.alicdn.com/t/font_1031158_u69w8yhxdu.woff?t=1630033759944") format("woff"), url("//at.alicdn.com/t/font_1031158_u69w8yhxdu.ttf?t=1630033759944") format("truetype"); }
</style></defs><path d="M1020.335198 967.419678l-51.020683-111.992721a39.9974 39.9974 0 0 0-72.795269 33.157845l25.246359 55.412398-821.138626-0.047997 175.212612-409.293396 134.791238 254.103484a39.9974 39.9974 0 0 0 72.667277-4.383715l76.970997-200.122992 33.725807 69.275497a39.9974 39.9974 0 1 0 71.923325-35.013724l-73.99519-151.990121a39.9974 39.9974 0 0 0-73.299235 3.151795l-78.4669 204.034738-44.637099-84.15453 172.884763-445.291056 246.479979 555.963862a40.0054 40.0054 0 1 0 73.131246-32.421892L602.522356 23.84901a39.9974 39.9974 0 0 0-73.8512 1.735887l-182.708123 470.569413-38.653488-72.859264a40.101393 40.101393 0 0 0-36.997595-21.222621 39.9974 39.9974 0 0 0-35.101719 24.222426l-231.984921 541.916775A39.9974 39.9974 0 0 0 39.99892 1023.944004L983.937564 1024a39.9974 39.9974 0 0 0 36.397634-56.580322z" fill="#4A90E2" p-id="8437"></path></svg>