<?xml version="1.0" standalone="no"?><!DOCTYPE svg PUBLIC "-//W3C//DTD SVG 1.1//EN" "http://www.w3.org/Graphics/SVG/1.1/DTD/svg11.dtd"><svg t="1659956728902" class="icon" viewBox="0 0 1024 1024" version="1.1" xmlns="http://www.w3.org/2000/svg" p-id="2288" xmlns:xlink="http://www.w3.org/1999/xlink" width="200" height="200"><defs><style type="text/css">@font-face { font-family: feedback-iconfont; src: url("//at.alicdn.com/t/font_1031158_u69w8yhxdu.woff2?t=1630033759944") format("woff2"), url("//at.alicdn.com/t/font_1031158_u69w8yhxdu.woff?t=1630033759944") format("woff"), url("//at.alicdn.com/t/font_1031158_u69w8yhxdu.ttf?t=1630033759944") format("truetype"); }
</style></defs><path d="M870.4 217.6c14.1 0 25.6 11.5 25.6 25.6v537.6c0 14.1-11.5 25.6-25.6 25.6H153.6c-14.1 0-25.6-11.5-25.6-25.6v-448c0-14.1 11.5-25.6 25.6-25.6h384.9l18.7-18.7 70.9-70.9h242.3m0-64H620.2c-11.9 0-23.3 4.7-31.7 13.1L512 243.2H153.6c-49.5 0-89.6 40.1-89.6 89.6v448c0 49.5 40.1 89.6 89.6 89.6h716.8c49.5 0 89.6-40.1 89.6-89.6V243.2c0-49.5-40.1-89.6-89.6-89.6z" p-id="2289" fill="#1296db"></path><path d="M768 741.4H256c-17.7 0-32-14.3-32-32s14.3-32 32-32h512c17.7 0 32 14.3 32 32s-14.3 32-32 32z" p-id="2290" fill="#1296db"></path></svg>