<?xml version="1.0" standalone="no"?><!DOCTYPE svg PUBLIC "-//W3C//DTD SVG 1.1//EN" "http://www.w3.org/Graphics/SVG/1.1/DTD/svg11.dtd"><svg t="1659971002516" class="icon" viewBox="0 0 1024 1024" version="1.1" xmlns="http://www.w3.org/2000/svg" p-id="3354" xmlns:xlink="http://www.w3.org/1999/xlink" width="200" height="200"><defs><style type="text/css">@font-face { font-family: feedback-iconfont; src: url("//at.alicdn.com/t/font_1031158_u69w8yhxdu.woff2?t=1630033759944") format("woff2"), url("//at.alicdn.com/t/font_1031158_u69w8yhxdu.woff?t=1630033759944") format("woff"), url("//at.alicdn.com/t/font_1031158_u69w8yhxdu.ttf?t=1630033759944") format("truetype"); }
</style></defs><path d="M185.6 785.92a153.728 153.728 0 0 1-153.6-153.6c0-51.648 26.304-99.712 68.544-127.936A115.392 115.392 0 0 1 211.2 357.12c8.832 0 18.688 2.176 28.032 5.056A282.048 282.048 0 0 1 518.4 117.76a279.936 279.936 0 0 1 277.632 234.048A217.92 217.92 0 0 1 992 568.256c0 120-97.6 217.6-217.6 217.6a25.6 25.6 0 1 1 0-51.2c91.776 0 166.4-74.624 166.4-166.4s-74.624-166.4-166.4-166.4a26.56 26.56 0 0 1-26.496-23.296A228.992 228.992 0 0 0 518.4 169.024a230.656 230.656 0 0 0-230.4 230.4 25.664 25.664 0 0 1-37.376 22.784c-12.864-6.656-31.808-13.76-39.424-13.76a64.064 64.064 0 0 0-56.704 93.76c3.2 6.144 3.776 14.912 1.6 21.504a27.072 27.072 0 0 1-14.336 16.128c-35.456 16.704-58.56 53.12-58.56 92.544 0 56.448 45.952 102.4 102.4 102.4a25.6 25.6 0 1 1 0 51.2z" p-id="3355" fill="#1296db"></path><path d="M315.008 726.976a25.472 25.472 0 0 1-22.144-38.4l64-110.848a25.536 25.536 0 1 1 44.288 25.6l-64 110.848a25.664 25.664 0 0 1-22.208 12.8zM468.608 726.976a25.472 25.472 0 0 1-22.144-38.4l64-110.848a25.6 25.6 0 1 1 44.288 25.6l-64 110.848a25.664 25.664 0 0 1-22.208 12.8zM622.208 726.976a25.472 25.472 0 0 1-22.144-38.4l64-110.848a25.6 25.6 0 0 1 44.288 25.6l-64 110.848a25.664 25.664 0 0 1-22.208 12.8zM315.008 906.176a25.472 25.472 0 0 1-22.144-38.4l64-110.848a25.536 25.536 0 1 1 44.288 25.6l-64 110.848a25.664 25.664 0 0 1-22.208 12.8zM468.608 906.176a25.472 25.472 0 0 1-22.144-38.4l64-110.848a25.6 25.6 0 1 1 44.288 25.6l-64 110.848a25.664 25.664 0 0 1-22.208 12.8zM622.208 906.176a25.472 25.472 0 0 1-22.144-38.4l64-110.848a25.6 25.6 0 1 1 44.288 25.6l-64 110.848a25.664 25.664 0 0 1-22.208 12.8z" p-id="3356" fill="#1296db"></path></svg>