<?xml version="1.0" standalone="no"?><!DOCTYPE svg PUBLIC "-//W3C//DTD SVG 1.1//EN" "http://www.w3.org/Graphics/SVG/1.1/DTD/svg11.dtd"><svg t="1660141606491" class="icon" viewBox="0 0 1024 1024" version="1.1" xmlns="http://www.w3.org/2000/svg" p-id="7116" xmlns:xlink="http://www.w3.org/1999/xlink" width="200" height="200"><defs><style type="text/css">@font-face { font-family: feedback-iconfont; src: url("//at.alicdn.com/t/font_1031158_u69w8yhxdu.woff2?t=1630033759944") format("woff2"), url("//at.alicdn.com/t/font_1031158_u69w8yhxdu.woff?t=1630033759944") format("woff"), url("//at.alicdn.com/t/font_1031158_u69w8yhxdu.ttf?t=1630033759944") format("truetype"); }
</style></defs><path d="M112 912V333l800 420v159H112z m749.07-699.21q-20.73 0-35.74-14.77a49.946 49.946 0 0 1-0.08-71.31 51.112 51.112 0 0 1 71.9 0.16q14.835 14.865 14.84 35.45 0 20.415-15.01 35.45t-35.91 15.02z m16.67-67.41a23.635 23.635 0 0 0-40.22 16.94 23.273 23.273 0 0 0 6.88 16.85 22.418 22.418 0 0 0 16.67 7.06 23.9 23.9 0 0 0 16.67-40.85zM683.77 377.99q-90.555 0-90.56-128.84 0-66.735 24.55-101.94t70.99-35.2q88.56 0 88.56 131.17 0 64.575-24.05 99.7t-69.49 35.11z m2.65-224.8q-38.97 0-38.97 94.63 0 89 37.98 89 37.32 0 37.32-91.65 0-91.98-36.33-91.98zM542.96 259.53q16.08 16.68 16.08 40.59 0 36.7-26.78 57.28-26.79 20.6-71.4 20.59-39.645 0-63.86-13.12v-47.31q25.71 19.26 60.04 19.26 21.735 0 34.5-9.63t12.77-27.4q0-18.255-15.17-27.89t-42.55-9.63H423.7v-41.34h21.07q51.75 0 51.75-34.87 0-32.865-39.64-32.87-25.875 0-50.26 16.93v-44.33q26.535-13.77 62.53-13.78 36.48 0 59.21 16.85t22.72 46.74q0 50.475-51.08 63.42v0.83q26.865 3 42.96 19.68z" fill="#1296db" p-id="7117"></path></svg>