<?xml version="1.0" standalone="no"?><!DOCTYPE svg PUBLIC "-//W3C//DTD SVG 1.1//EN" "http://www.w3.org/Graphics/SVG/1.1/DTD/svg11.dtd"><svg t="1659970828568" class="icon" viewBox="0 0 1024 1024" version="1.1" xmlns="http://www.w3.org/2000/svg" p-id="2292" xmlns:xlink="http://www.w3.org/1999/xlink" width="200" height="200"><defs><style type="text/css">@font-face { font-family: feedback-iconfont; src: url("//at.alicdn.com/t/font_1031158_u69w8yhxdu.woff2?t=1630033759944") format("woff2"), url("//at.alicdn.com/t/font_1031158_u69w8yhxdu.woff?t=1630033759944") format("woff"), url("//at.alicdn.com/t/font_1031158_u69w8yhxdu.ttf?t=1630033759944") format("truetype"); }
</style></defs><path d="M512 0a51.2 51.2 0 0 1 0 102.4 409.6512 409.6512 0 0 0-406.5792 359.6288c3.6352-0.9216 7.168-1.4336 10.3424-1.5872 35.6864-2.048 61.9008 15.1552 78.6432 51.5584h60.8256c28.416-33.8432 64.3584-50.3296 107.8784-49.4592 38.7584 0.8192 71.8848 17.3056 99.4304 49.4592h82.2272c18.8928-43.008 43.6736-64.512 74.3424-64.512 37.0688 0 65.3824 21.504 84.992 64.512h40.448c36.4544-68.2496 78.6432-102.4 126.464-102.4 47.8208 0 88.6784 34.1504 122.624 102.4H1024c0 282.7776-229.2224 512-512 512S0 794.7776 0 512 229.2224 0 512 0zM256 409.6a51.2 51.2 0 1 1 0-102.4 51.2 51.2 0 0 1 0 102.4z m384 0a25.6 25.6 0 1 1 0-51.2 25.6 25.6 0 0 1 0 51.2z m-153.6 51.2a25.6 25.6 0 1 1 0-51.2 25.6 25.6 0 0 1 0 51.2z m-51.2-153.6a76.8 76.8 0 1 1 0-153.6 76.8 76.8 0 0 1 0 153.6z" p-id="2293" fill="#ea9518"></path></svg>